<?xml version="1.0" encoding="UTF-8" standalone="no"?>
<svg width="434px" height="556px" viewBox="0 0 434 556" version="1.1" xmlns="http://www.w3.org/2000/svg" xmlns:xlink="http://www.w3.org/1999/xlink" xmlns:sketch="http://www.bohemiancoding.com/sketch/ns">
    <!-- Generator: Sketch 3.1.1 (8761) - http://www.bohemiancoding.com/sketch -->
    <title>accessible-logo-full 2</title>
    <desc>Created with Sketch.</desc>
    <defs></defs>
    <g id="Page-1" stroke="none" stroke-width="1" fill="none" fill-rule="evenodd" sketch:type="MSPage">
        <path d="M320.553684,312.132187 C331.72263,334.698103 338,360.115972 338,387 C338,430.815424 321.325873,470.736397 293.97687,500.763666 L293.97687,500.763666 L251.478307,458.265103 C268.003566,439.156601 278,414.245697 278,387 C278,326.800962 229.199038,278 169,278 C141.754303,278 116.843399,287.996434 97.7348969,304.521693 L55.2363337,262.02313 C79.2863229,240.118267 109.683144,225.061359 143.344359,219.934844 L223.941406,128.435547 L177.941406,101.435547 L120.310425,152.219971 L120.298941,152.207176 C114.550993,157.068846 107.1178,160 99,160 C80.7746033,160 66,145.225397 66,127 C66,117.602451 69.9281771,109.122377 76.2321249,103.112184 L76.2166748,103.094971 L150.935425,36.4387207 L150.962968,36.436023 C156.805701,31.1908486 164.530219,28 173,28 C179.160029,28 184.925845,29.6878248 189.860219,32.6262444 L189.872925,32.625 L338.560425,118.40625 L338.562023,118.415314 C349.609592,125.061924 357,137.167901 357,151 C357,160.066054 353.825109,168.390573 348.526508,174.922375 L348.529175,174.9375 L348.248775,175.260766 C347.898586,175.682484 347.539452,176.096505 347.171662,176.502539 L285.388672,247.730469 L398.710513,242.078181 C399.121121,242.050044 399.53379,242.029417 399.948387,242.016438 L400.277954,242 L400.285295,242.007586 C400.522921,242.002537 400.761164,242 401,242 C419.225397,242 434,256.774603 434,275 C434,275.603392 433.983806,276.203002 433.951828,276.798419 L433.965454,276.8125 L420.849609,449.3927 L420.827921,449.390794 C419.130271,466.023215 405.080581,479 388,479 C369.774603,479 355,464.225397 355,446 C355,445.197288 355.02866,444.40127 355.085014,443.612914 L355.068359,443.61145 L365.888672,309.751953 L320.553687,312.132192 Z M271.877042,521.090246 C243.383006,542.984255 207.711498,556 169,556 C75.6638773,556 0,480.336123 0,387 C0,348.288502 13.015745,312.616994 34.9097542,284.122958 L77.9065598,327.119763 C66.5871346,344.304772 60,364.883132 60,387 C60,447.199038 108.800962,496 169,496 C191.116868,496 211.695228,489.412865 228.880237,478.09344 L271.877042,521.090246 L271.877042,521.090246 Z M363,112 C393.927946,112 419,86.927946 419,56 C419,25.072054 393.927946,0 363,0 C332.072054,0 307,25.072054 307,56 C307,86.927946 332.072054,112 363,112 Z" id="Oval-1" fill="#242424" sketch:type="MSShapeGroup"></path>
    </g>
</svg>
