<?xml version="1.0" encoding="UTF-8" standalone="no"?>
<svg width="58px" height="65px" viewBox="0 0 58 65" version="1.1" xmlns="http://www.w3.org/2000/svg" xmlns:xlink="http://www.w3.org/1999/xlink" xmlns:sketch="http://www.bohemiancoding.com/sketch/ns">
    <!-- Generator: Sketch 3.1.1 (8761) - http://www.bohemiancoding.com/sketch -->
    <title>Slice 2</title>
    <desc>Created with Sketch.</desc>
    <defs></defs>
    <g id="Page-1" stroke="none" stroke-width="1" fill="none" fill-rule="evenodd" sketch:type="MSPage">
        <path d="M18,65 L50,65 C50,65 47,60 47,53 C47,37 58,40 58,24 C58,14 50,-7.10542736e-15 32,-7.10542736e-15 C14,-7.10542736e-15 5,13 5,26 C4.91439882,26.5992083 6.11240244,27.4837045 6,28 C3,32 0.91439882,34.2568035 0,37 C0,40 4,39 4,40 C4,42 3,41 3,43 C3,45 6,45 6,45 C6,45 4,45 4,47 C4,48 6,48 6,49 C6,51 5,51 5,53 C5,55 5,57 10,57 C21,56 18,57 18,65 Z M36,36.0000007 C36,36.0000007 38,39 41,39 C44,39 44,34 44,34 C44,34 48,35 49,33 C50,31 49,29 49,29 C49,29 52,28 52,24 C52,20 50,18 50,18 C50,18 52,15 49,14 C49,14 49,11 46,11 C46,11 44,7 41,9 C41,9 40,5 36,7 C36,7 33,4.00000006 30,7 C30,7 27,3.99999982 24,8 C24,8 20,6.00000029 18,11 C18,11 15,11.0000003 15,14 C15,14 12,15.6666673 12,19 C12,22.3333327 14,22 14,22 C14,22 14,26.9999993 23,26 C23,26 21,30.9999993 27,32 C33,33.0000007 33,39.9999988 34,40.9999988 C36,41.9999988 36,36.0000007 36,36.0000007 Z" id="Path-1" fill="#242424" sketch:type="MSShapeGroup"></path>
    </g>
</svg>