<?xml version="1.0" encoding="UTF-8" standalone="no"?>
<svg width="171px" height="66px" viewBox="0 0 171 66" version="1.1" xmlns="http://www.w3.org/2000/svg" xmlns:xlink="http://www.w3.org/1999/xlink" xmlns:sketch="http://www.bohemiancoding.com/sketch/ns">
    <!-- Generator: Sketch 3.1.1 (8761) - http://www.bohemiancoding.com/sketch -->
    <title>accessibility-icons 2</title>
    <desc>Created with Sketch.</desc>
    <defs></defs>
    <g id="Page-1" stroke="none" stroke-width="1" fill="none" fill-rule="evenodd" sketch:type="MSPage">
        <g id="hearing" sketch:type="MSLayerGroup">
            <path d="M14.8496094,23.956543 C14.8496094,23.956543 17.2158203,9.33154297 32.2158203,9.33154297 C47.2158203,9.33154297 53.3408203,22.581543 53.3408203,29.331543 C53.3408203,36.081543 48.9799805,39.4619141 43.2299805,46.2119141 C37.4799805,52.9619141 37.7299805,58.956543 30.8549805,58.956543 C23.9799805,58.956543 22.4892578,56.0722656 22.4892578,56.0722656" id="Path-5" stroke="#242424" stroke-width="4" stroke-linecap="round" sketch:type="MSShapeGroup"></path>
            <path d="M22.1196289,22.1958008 C22.1196289,22.1958008 24.9951172,15.8208008 32.8789062,15.8208008 C40.7626953,15.8208008 46.1376953,21.6865234 46.1376953,28.6865234 C46.1430664,33.8115234 44.1484375,34.0615234 42.5288086,36.8115234" id="Path-6" stroke="#242424" stroke-width="3" stroke-linecap="round" sketch:type="MSShapeGroup"></path>
            <path d="M10.25,34.2446289 L10.25,63.2446289 L15.75,66.9404297 L21.25,63.2446289 L21.25,34.2446289 L10.25,34.2446289 Z" id="Rectangle-1" fill="#242424" sketch:type="MSShapeGroup" transform="translate(15.750000, 50.592529) rotate(-315.000000) translate(-15.750000, -50.592529) "></path>
            <path d="M51.6154879,1.38130034 L51.6154879,14.4121168 L57.1154879,16.0727824 L62.6154879,14.4121168 L62.6154879,1.38130034 L51.6154879,1.38130034 Z" id="Rectangle-2" fill="#242424" sketch:type="MSShapeGroup" transform="translate(57.115488, 8.727041) scale(-1, -1) rotate(-315.000000) translate(-57.115488, -8.727041) "></path>
        </g>
        <g id="vision" sketch:type="MSLayerGroup" transform="translate(66.000000, 0.000000)" fill="#242424">
            <path d="M21.6421926,16.2355008 C20.813587,16.4498376 20.0000369,16.6871722 19.2031674,16.9435324 L19.2031674,16.9435324 L29.4440448,41.9752905 C29.9555429,41.991627 30.4741824,42 31,42 C31.3964338,42 31.7887874,41.9952406 32.1770766,41.9858973 L21.6421942,16.2355032 Z M27.4815094,15.179585 C28.6363082,15.0627694 29.810328,15 31,15 C48.1208272,15 62,28 62,28 C62,28 54.6440469,38.8414664 38.2264958,41.4435359 L37.6954427,40.1454838 C41.4731171,37.8712353 44,33.7307102 44,29 C44,21.8202983 38.1797017,16 31,16 C29.9542534,16 28.9373464,16.1234768 27.9630632,16.3566462 L27.4815094,15.179585 Z M34.5607883,47.8123993 C33.4125585,47.9349958 32.2257837,48 31,48 C9.49902344,48 0,28 0,28 C0,28 8.18742124,16.7917669 19.7426121,11.5923581 L15,0 L21.2713075,0 L25.2381035,9.69603224 C27.1050792,9.25127518 29.0311041,9 31,9 C48.1208272,9 62,28 62,28 C62,28 55.2810652,42.14658 40.3542432,46.6443851 L45,58 L38.7286925,58 L34.5607883,47.8123993 Z M4.32159744,24.5659054 C4.9695857,24.1038282 5.68270591,23.6149372 6.45560462,23.1123172 L6.45560462,23.1123172 L12.5305485,37.9612916 C11.2564937,37.3470553 10.0844692,36.6955235 9.01227327,36.0313263 C7.44871849,32.2095217 5.88515797,28.3877136 4.32159744,24.5659054 L4.32159744,24.5659054 Z M0.40016611,27.6408851 C0.136860804,27.8718086 0,28 0,28 C0,28 0.014957266,28.0220446 0.0450281878,28.0643841 C0.0411655498,28.0579801 0.0373052659,28.0515741 0.0334473403,28.045166 C0.164000315,27.901223 0.285952809,27.7667825 0.40016611,27.6408851 L0.40016611,27.6408851 Z M11.5204301,20.1633153 C12.2520459,19.7855923 13.0111271,19.4141637 13.7954623,19.0544343 L13.7954623,19.0544343 L22.8943699,41.2948778 C21.858682,41.1086785 20.8604051,40.8897718 19.8990845,40.6432452 L11.5204301,20.1633153 L11.5204301,20.1633153 Z" id="Oval-4" sketch:type="MSShapeGroup"></path>
        </g>
        <g id="physical" sketch:type="MSLayerGroup" transform="translate(128.000000, 1.000000)" fill="#242424">
            <path d="M26.6301268,57.6855469 C23.6354978,57.6855469 15.6269531,58.5693359 10.3144531,48.8842773 C8.99731445,46.6921387 6.93481445,41.5698242 6.43481445,40.8171387 C5.93481445,40.0644531 4.61889659,37.7919922 4.18139659,36.8544922 C3.74389659,35.9169922 3.62158213,34.7480469 3.24658213,34.3730469 C2.87158213,33.9980469 0.497314453,30.5598145 0.497314453,30.5598145 C0.497314453,30.5598145 -0.315185547,28.3098145 2.24731445,28.3098145 C4.80981445,28.3098145 6.24389648,30.0419922 8.80908189,33.0395508 C10.3063965,35.2270508 8.99853516,35.4169922 13.123535,38.6669922 C13.7451171,37.6491699 12.4348146,33.0598145 12.7473145,22.9348145 C12.7512207,21.2895508 12.0556639,17.0241699 12.7473143,6.91699219 C12.8723143,5.97241211 13.187256,4.67773438 14.9372559,4.67773438 C16.6872557,4.67773438 17.187256,6.2956543 17.1872559,6.55273438 C17.1872557,6.80981445 19.005127,24.6801758 19.005127,24.6801758 C19.005127,24.6801758 19.0051271,26.1176758 19.942627,26.1176758 C20.8801268,26.1176758 21.192627,24.6176758 21.192627,24.6176758 L22.2446288,1.55517578 C22.2446288,1.55517578 22.5708009,-0.319824219 24.567627,-0.319824219 C26.564453,-0.319824219 26.9946288,1.55517578 26.9946288,1.55517578 L27.9294432,23.9328613 C27.9294432,23.9328613 27.4946289,25.826416 29.0571288,25.826416 C30.0537109,25.8244629 30.0537109,24.4487305 30.0544432,23.9328613 C30.4313965,20.388916 31.7392577,7.99267578 31.7392577,7.99267578 C31.7392577,7.99267578 32.0078107,5.93017578 34.0703125,5.93017578 C36.1328143,5.93017578 36.0563983,8.38696289 36.0563983,8.38696289 L34.8203125,28.8051758 C34.8203125,28.8051758 34.6374494,30.2426758 35.5078125,30.2426758 C36.3781756,30.2426758 36.6188965,28.5788574 36.6188965,28.5788574 L39.4267578,16.5769043 C39.4267578,16.5769043 39.6281721,15.2426758 41.4406738,15.2426758 C43.2531756,15.2426758 42.9406738,17.2426758 42.9406738,17.2426758 C42.9406738,17.2426758 40.7531721,31.5456543 40.1281738,35.7355957 C39.5031756,39.9255371 38.4406738,49.8630371 38.4406738,49.8630371 C38.4406738,49.8630371 37.8137206,57.2580566 26.6301268,57.6855469 Z" id="Path-7" sketch:type="MSShapeGroup"></path>
        </g>
    </g>
</svg>
